<svg width="34" height="34" viewBox="0 0 34 34" fill="none" xmlns="http://www.w3.org/2000/svg">
<path d="M17 0.333344C19.2101 0.333344 21.3297 1.21132 22.8925 2.77412C24.4553 4.33692 25.3333 6.45654 25.3333 8.66668C25.3333 10.8768 24.4553 12.9964 22.8925 14.5592C21.3297 16.122 19.2101 17 17 17C14.7898 17 12.6702 16.122 11.1074 14.5592C9.54462 12.9964 8.66665 10.8768 8.66665 8.66668C8.66665 6.45654 9.54462 4.33692 11.1074 2.77412C12.6702 1.21132 14.7898 0.333344 17 0.333344ZM17 21.1667C26.2083 21.1667 33.6666 24.8958 33.6666 29.5V33.6667H0.333313V29.5C0.333313 24.8958 7.79165 21.1667 17 21.1667Z" fill="white"/>
</svg>
